<svg width="17" height="25" viewBox="0 0 17 25" fill="none" xmlns="http://www.w3.org/2000/svg">
<path d="M12.9743 11.7067C14.5847 10.9509 15.2564 9.79813 15.0808 7.24138C14.9298 5.04408 12.7824 3.06464 9.76514 3.06464H9.76165V0H7.64655V3.06464H6.02598V0H3.82546V3.06464H0V5.03889H2.81743V19.1686C2.81743 19.1686 1.81037 19.1686 0.80461 18.9702L0.201152 21.1429C1.50864 21.3413 3.82546 21.3413 3.82546 21.3413V24.2072H6.04284V21.3413H7.64655V24.2072H9.76165V21.3413H10.3593C14.8853 21.3413 16.6956 18.4699 16.6956 16.072C16.6956 13.1568 14.7766 11.9115 12.9743 11.7067ZM5.82483 5.03889H8.62532C10.6611 5.03889 11.5663 6.52888 11.5663 7.83756C11.5663 9.14625 10.4599 10.5703 8.14667 10.5703H5.82483V5.03889ZM9.59875 19.1686H5.82483V13.3383H9.7999C11.3339 13.3383 12.9743 14.2039 12.9743 16.072C12.9743 18.6514 11.1328 19.1686 9.59875 19.1686Z" fill="#ECC289"/>
</svg>
