<svg width="87" height="126" viewBox="0 0 87 126" fill="none" xmlns="http://www.w3.org/2000/svg">
<path d="M67.3962 60.4817L65.7959 61.232L67.5521 61.4312C72.16 61.9541 76.8952 63.8036 80.4736 67.3592C84.0432 70.9059 86.5 76.1874 86.5 83.6557C86.5 89.775 84.1867 96.5009 78.9819 101.696C73.7835 106.885 65.6634 110.583 53.9819 110.583H50.8673H50.3673V111.083V125.5H40.3457V111.083V110.583H39.8457H31.4889H30.9889V111.083V125.5H20.4342V111.083V110.583H19.9342H19.9338H19.9322L19.9258 110.583L19.9001 110.583L19.7984 110.583C19.7088 110.583 19.5763 110.582 19.4051 110.581C19.0628 110.579 18.5658 110.575 17.9479 110.567C16.7122 110.551 14.9936 110.519 13.0629 110.454C9.40386 110.332 5.0041 110.095 1.68215 109.637L4.5511 99.319C7.04588 99.7833 9.50366 100.021 11.3697 100.144C12.3604 100.209 13.1864 100.241 13.7656 100.258C14.0552 100.266 14.2831 100.27 14.4392 100.272C14.5172 100.273 14.5773 100.274 14.6181 100.274L14.6647 100.274L14.6769 100.274L14.6801 100.274H14.681H14.6813C14.6814 100.274 14.6815 100.274 14.6815 99.7741V100.274H15.1815V99.7741V26.2278V25.7278H14.6815H0.5V16.4517H19.9342H20.4342V15.9517V0.5H30.901V15.9517V16.4517H31.401H39.8457H40.3457V15.9517V0.5H50.3673V15.9517V16.4517H50.8673H50.8855C66.4039 16.4517 77.3214 26.6057 78.0861 37.7262C78.5409 44.341 77.8916 49.0653 76.1386 52.6065C74.3937 56.1311 71.5235 58.5466 67.3962 60.4817ZM30.3528 25.7278H29.8528V26.2278V55.0194V55.5194H30.3528H42.4518C54.7407 55.5194 60.7711 47.9227 60.7711 40.7951C60.7711 37.2802 59.5554 33.5152 56.9587 30.623C54.3525 27.7202 50.3827 25.7278 44.946 25.7278H30.3528ZM29.8528 100.274H30.3528H50.0185C54.0556 100.274 58.5745 99.5972 62.0956 97.1609C65.6505 94.7012 68.1084 90.5047 68.1084 83.6557C68.1084 78.6268 65.8892 74.9247 62.6343 72.4943C59.3951 70.0756 55.1487 68.9267 51.0667 68.9267H30.3528H29.8528V69.4267V99.7741V100.274Z" stroke="#ECC289"/>
</svg>
